<svg xmlns="http://www.w3.org/2000/svg" viewBox="0 0 1000 324">
  <path d="M652.7,0h-92.9V234.6h92.9Zm462,0H999.3c-25.1,88.8-49.9,177.7-75.4,266.2H835.4c26.5-88.5,52.3-177.4,76.7-266.2ZM557.3,234.6V0H450.7L352.8,162.9,304.7,0H195.1V234.6H283V69l70.5,165.6h51.9l75-165.6V234.6ZM78.5,0H1c9.8,10.7,6.8,98.1,3,137.4-2.9,30.3-10.8,66.5-15.2,97.2H129c-4.3-77.8-50.2-155.6-50.5-234.6" fill="#1434cb"/>
  <path d="M934.1,266.1l64.5-266.1h87.2c-25,88.9-49.2,177.7-74.7,266.1ZM283,0V234.6H195.1V0Zm303.4,82.7c-35.5-21.2-96.2-11.6-120.8-8.6l0,0v0l-8.8,43.8c20.9-9.9,62.6-19.5,83.4-11.1,9.9,3.7,16.3,12.1,13.3,21.7-16.1,51-64.5,71.2-127.8,69.2l-11,54h69l16.2-75.5c39.9-8.9,76.9-32.6,85.5-93.3m-183.7-20c-86.2,0-144.7,42.5-144.7,103.1,0,45.3,42.6,71.9,74.9,87.1,33.1,15.3,44.3,25.3,44.3,39,0,21.1-26.5,30.4-51,30.4-42.9,0-66.6-11.7-86.2-21.2l-15.3,73.6c19.6,9,55.9,16.8,93.6,17.2,88.5,0,146.6-41.7,146.6-105.9,0-40.9-24.5-71.9-78.2-97.2-32.6-16.3-52.8-27.1-52.8-43.8,0-14.7,17.2-30.4,53.8-30.4,30.8,0,53.1,8.6,69.4,16.3l14.9-68.2c-19.1-8.1-43.4-15.8-69.3-15.8M0,234.6H89.1c-4.3-77.8-50.2-155.7-50.5-234.6H-1C9.4,10.7,6.4,98.1,2.7,137.4-0.2,167.7-8.1,204,0,234.6Z" fill="#fff"/>
</svg> 